<?xml version="1.0" encoding="UTF-8" standalone="no" ?>
<!DOCTYPE svg PUBLIC "-//W3C//DTD SVG 1.1//EN" "http://www.w3.org/Graphics/SVG/1.1/DTD/svg11.dtd">
<svg xmlns="http://www.w3.org/2000/svg" xmlns:xlink="http://www.w3.org/1999/xlink" version="1.1" width="400.6342855834961" height="110.315" xml:space="preserve">
<desc>Created with Fabric.js 1.6.0-rc.1</desc>
<defs></defs>
<g style="stroke: none; stroke-width: 1; stroke-dasharray: none; stroke-linecap: butt; stroke-linejoin: miter; stroke-miterlimit: 10; fill: none; fill-rule: nonzero; opacity: 1;" transform="translate(10 10) scale(0.18 0.18)" >
  <path d="M 438.406 406.618 H 169.445 v -32.275 h 268.961 c 4.306 0 8.358 -1.68 11.408 -4.729 c 3.05 -3.049 4.729 -7.103 4.729 -11.408 c 0 -8.898 -7.239 -16.138 -16.138 -16.138 H 169.445 L 113.564 97.306 L 66.111 51.59 H 8.069 V 19.315 h 71.059 l 64.22 61.868 l 52.803 228.609 h 242.254 c 26.695 0 48.413 21.718 48.413 48.413 c 0 12.927 -5.037 25.083 -14.184 34.229 C 463.489 401.581 451.333 406.618 438.406 406.618 z" style="stroke: none; stroke-width: 1; stroke-dasharray: none; stroke-linecap: butt; stroke-linejoin: miter; stroke-miterlimit: 10; fill: #5c3654; fill-rule: nonzero; opacity: 1;" transform=" matrix(1 0 0 1 0 0) " stroke-linecap="round" />
  <circle cx="223.235" cy="460.405" r="32.275" style="stroke: none; stroke-width: 1; stroke-dasharray: none; stroke-linecap: butt; stroke-linejoin: miter; stroke-miterlimit: 10; fill: #898890; fill-rule: nonzero; opacity: 1;" transform="  matrix(1 0 0 1 0 0) "/>
  <circle cx="427.645" cy="460.405" r="32.275" style="stroke: none; stroke-width: 1; stroke-dasharray: none; stroke-linecap: butt; stroke-linejoin: miter; stroke-miterlimit: 10; fill: #898890; fill-rule: nonzero; opacity: 1;" transform="  matrix(1 0 0 1 0 0) "/>
  <polygon points="502.96,89.24 499.47,121.52 152.26,121.52 145.25,89.24 " style="stroke: none; stroke-width: 1; stroke-dasharray: none; stroke-linecap: butt; stroke-linejoin: miter; stroke-miterlimit: 10; fill: #5c3654; fill-rule: nonzero; opacity: 1;" transform="  matrix(1 0 0 1 0 0) "/>
  <polygon points="190.96,89.24 190.96,121.52 152.26,121.52 145.25,89.24 " style="stroke: none; stroke-width: 1; stroke-dasharray: none; stroke-linecap: butt; stroke-linejoin: miter; stroke-miterlimit: 10; fill: #BDBDBD; fill-rule: nonzero; opacity: 1;" transform="  matrix(1 0 0 1 0 0) "/>
  <polygon points="66.11,51.59 8.07,51.59 8.07,19.32 79.13,19.32 " style="stroke: none; stroke-width: 1; stroke-dasharray: none; stroke-linecap: butt; stroke-linejoin: miter; stroke-miterlimit: 10; fill: #9c389c; fill-rule: nonzero; opacity: 1;" transform="  matrix(1 0 0 1 0 0) "/>
  <path d="M 506.467 129.589 h 0.247 l 4.254 -39.38 L 512 81.176 h -0.057 H 151.637 l -0.98 -4.156 L 82.383 11.246 H 0 v 48.413 h 62.856 l 43.376 41.789 l 56.779 248.689 h 275.395 c 4.45 0 8.069 3.619 8.069 8.069 c 0 2.151 -0.84 4.176 -2.367 5.702 c -1.526 1.527 -3.551 2.367 -5.702 2.367 h -277.03 v 48.413 h 53.792 v 6.191 c -18.393 3.748 -32.275 20.048 -32.275 39.532 c 0 22.246 18.098 40.344 40.344 40.344 s 40.344 -18.098 40.344 -40.344 c 0 -19.483 -13.883 -35.784 -32.275 -39.532 v -6.191 h 188.272 v 6.191 c -18.393 3.748 -32.275 20.048 -32.275 39.532 c 0 22.246 18.098 40.344 40.344 40.344 s 40.344 -18.098 40.344 -40.344 c 0 -19.483 -13.883 -35.784 -32.275 -39.532 v -6.191 h 2.69 c 15.083 0 29.266 -5.876 39.934 -16.546 c 10.671 -10.669 16.548 -24.853 16.548 -39.935 c 0 -31.143 -25.338 -56.482 -56.482 -56.482 H 202.569 l -3.728 -16.138 h 289.797 L 506.467 129.589 z M 247.444 460.41 c 0 13.347 -10.86 24.206 -24.206 24.206 s -24.206 -10.86 -24.206 -24.206 c 0 -10.519 6.747 -19.488 16.138 -22.819 v 22.819 h 16.138 v -22.819 C 240.697 440.922 247.444 449.892 247.444 460.41 z M 451.854 460.41 c 0 13.347 -10.86 24.206 -24.206 24.206 c -13.347 0 -24.206 -10.86 -24.206 -24.206 c 0 -10.519 6.747 -19.488 16.138 -22.819 v 22.819 h 16.138 v -22.819 C 445.107 440.922 451.854 449.892 451.854 460.41 z M 173.993 178.001 h 41.176 v 37.654 H 182.69 L 173.993 178.001 z M 419.579 129.589 v 32.275 h -26.896 v -32.275 H 419.579 z M 376.545 161.864 H 338.89 v -32.275 h 37.654 V 161.864 z M 338.89 178.001 h 37.654 v 37.654 H 338.89 V 178.001 z M 322.753 215.656 h -37.654 v -37.654 h 37.654 V 215.656 z M 322.753 161.864 h -37.654 v -32.275 h 37.654 V 161.864 z M 268.961 161.864 h -37.655 v -32.275 h 37.655 V 161.864 z M 215.169 161.864 h -44.904 l -7.455 -32.275 h 52.358 V 161.864 z M 231.306 178.001 h 37.655 v 37.654 h -37.655 V 178.001 z M 268.961 231.794 v 37.654 h -37.655 v -37.654 H 268.961 z M 285.098 231.794 h 37.654 v 37.654 h -37.654 V 231.794 z M 338.89 231.794 h 37.654 v 37.654 H 338.89 V 231.794 z M 392.683 231.794 h 26.896 v 37.654 h -26.896 V 231.794 z M 392.683 215.656 v -37.654 h 26.896 v 37.654 H 392.683 z M 435.716 178.001 h 48.975 l -4.303 37.654 h -44.671 V 178.001 z M 486.536 161.864 h -50.82 v -32.275 h 54.508 L 486.536 161.864 z M 438.406 317.861 c 22.246 0 40.344 18.098 40.344 40.344 c 0 10.772 -4.197 20.903 -11.82 28.525 c -7.621 7.622 -17.751 11.819 -28.524 11.819 H 177.514 v -16.138 h 260.892 c 6.462 0 12.539 -2.52 17.113 -7.093 c 4.573 -4.574 7.093 -10.652 7.093 -17.113 c 0 -13.347 -10.86 -24.206 -24.206 -24.206 H 175.879 L 121.429 95.51 l -0.535 -2.346 L 69.366 43.521 H 16.138 V 27.383 h 59.735 l 60.168 57.963 l 2.821 11.967 h 6.388 h 348.663 l -1.844 16.138 H 142.521 l 47.214 204.41 H 438.406 z M 186.418 231.794 h 28.751 v 37.654 h -20.054 L 186.418 231.794 z M 435.716 269.448 v -37.654 h 42.828 l -4.303 37.654 H 435.716 z" style="stroke: none; stroke-width: 1; stroke-dasharray: none; stroke-linecap: butt; stroke-linejoin: miter; stroke-miterlimit: 10; fill: #293288; fill-rule: nonzero; opacity: 1;" transform=" matrix(1 0 0 1 0 0) " stroke-linecap="round" />
</g>
  <g transform="translate(251.34 56.39) scale(1.03 0.64)">
   <text font-family="Halcion" font-size="40" font-style="italic" font-weight="normal" style="stroke: none; stroke-width: 1; stroke-dasharray: none; stroke-linecap: butt; stroke-linejoin: miter; stroke-miterlimit: 10; fill: #5c3659; fill-rule: nonzero; opacity: 1;" ><tspan x="-135.74" y="8.98" style="stroke: none; stroke-width: 0; stroke-dasharray: none; stroke-linecap: butt; stroke-linejoin: miter; stroke-miterlimit: 4; fill: #5c3659; fill-rule: ; opacity: 1;">o</tspan><tspan x="-105.86" y="8.98" style="stroke: none; stroke-width: 0; stroke-dasharray: none; stroke-linecap: butt; stroke-linejoin: miter; stroke-miterlimit: 4; fill: #5c3659; fill-rule: ; opacity: 1;">n</tspan><tspan x="-80.7" y="8.98" style="stroke: none; stroke-width: 0; stroke-dasharray: none; stroke-linecap: butt; stroke-linejoin: miter; stroke-miterlimit: 4; fill: #5c3659; fill-rule: ; opacity: 1;">l</tspan><tspan x="-60.98" y="8.98" style="stroke: none; stroke-width: 0; stroke-dasharray: none; stroke-linecap: butt; stroke-linejoin: miter; stroke-miterlimit: 4; fill: #5c3659; fill-rule: ; opacity: 1;">i</tspan><tspan x="-48.06" y="8.98" style="stroke: none; stroke-width: 0; stroke-dasharray: none; stroke-linecap: butt; stroke-linejoin: miter; stroke-miterlimit: 4; fill: #5c3659; fill-rule: ; opacity: 1;">n</tspan><tspan x="-22.9" y="8.98" style="stroke: none; stroke-width: 0; stroke-dasharray: none; stroke-linecap: butt; stroke-linejoin: miter; stroke-miterlimit: 4; fill: #5c3659; fill-rule: ; opacity: 1;">e</tspan><tspan x="-0.82" y="8.98" style="stroke: none; stroke-width: 0; stroke-dasharray: none; stroke-linecap: butt; stroke-linejoin: miter; stroke-miterlimit: 4; fill: #5c3659; fill-rule: ; opacity: 1;"> </tspan><tspan x="11.18" y="8.98" style="stroke: none; stroke-width: 0; stroke-dasharray: none; stroke-linecap: butt; stroke-linejoin: miter; stroke-miterlimit: 4; fill: #5c3659; fill-rule: ; opacity: 1;">s</tspan><tspan x="35.02" y="8.98" style="stroke: none; stroke-width: 0; stroke-dasharray: none; stroke-linecap: butt; stroke-linejoin: miter; stroke-miterlimit: 4; fill: #5c3659; fill-rule: ; opacity: 1;">t</tspan><tspan x="57.18" y="8.98" style="stroke: none; stroke-width: 0; stroke-dasharray: none; stroke-linecap: butt; stroke-linejoin: miter; stroke-miterlimit: 4; fill: #5c3659; fill-rule: ; opacity: 1;">o</tspan><tspan x="87.06" y="8.98" style="stroke: none; stroke-width: 0; stroke-dasharray: none; stroke-linecap: butt; stroke-linejoin: miter; stroke-miterlimit: 4; fill: #5c3659; fill-rule: ; opacity: 1;">r</tspan><tspan x="113.66" y="8.98" style="stroke: none; stroke-width: 0; stroke-dasharray: none; stroke-linecap: butt; stroke-linejoin: miter; stroke-miterlimit: 4; fill: #5c3659; fill-rule: ; opacity: 1;">e</tspan></text>
 </g>
</svg>