<svg width="1468" height="157" viewBox="0 0 1468 157" fill="none" xmlns="http://www.w3.org/2000/svg">
<path d="M44.112 121V33.016H0.12V8.68H112.44V33.016H68.448V121H44.112ZM146.259 121C140.019 121 134.663 118.764 130.191 114.292C125.823 109.82 123.639 104.516 123.639 98.38V30.52H147.507V91.984C147.507 95.416 147.507 97.132 147.507 97.132C147.507 97.132 149.223 97.132 152.655 97.132H186.351C189.783 97.132 191.499 97.132 191.499 97.132C191.499 97.132 191.499 95.416 191.499 91.984V30.52H215.367V98.38C215.367 104.516 213.131 109.82 208.659 114.292C204.291 118.764 198.987 121 192.747 121H146.259ZM250.923 121C244.683 121 239.327 118.764 234.855 114.292C230.383 109.82 228.147 104.516 228.147 98.38V3.68799H252.015V30.52H285.555V54.388H252.015V91.984C252.015 95.416 252.015 97.132 252.015 97.132C252.015 97.132 253.731 97.132 257.163 97.132H285.555V121H250.923ZM320.838 121C314.702 121 309.398 118.764 304.926 114.292C300.454 109.82 298.218 104.516 298.218 98.38V53.14C298.218 47.004 300.454 41.7 304.926 37.228C309.398 32.756 314.702 30.52 320.838 30.52H367.326C373.566 30.52 378.87 32.756 383.238 37.228C387.71 41.7 389.946 47.004 389.946 53.14V98.38C389.946 104.516 387.71 109.82 383.238 114.292C378.87 118.764 373.566 121 367.326 121H320.838ZM327.234 97.132H360.93C364.362 97.132 366.078 97.132 366.078 97.132C366.078 97.132 366.078 95.416 366.078 91.984V59.536C366.078 56.104 366.078 54.388 366.078 54.388C366.078 54.388 364.362 54.388 360.93 54.388H327.234C323.802 54.388 322.086 54.388 322.086 54.388C322.086 54.388 322.086 56.104 322.086 59.536V91.984C322.086 95.416 322.086 97.132 322.086 97.132C322.086 97.132 323.802 97.132 327.234 97.132ZM402.12 121V53.14C402.12 47.004 404.356 41.7 408.828 37.228C413.3 32.756 418.656 30.52 424.896 30.52H474.816V54.388H431.136C427.704 54.388 425.988 54.388 425.988 54.388C425.988 54.388 425.988 56.104 425.988 59.536V121H402.12ZM487.28 121V30.52H511.148V121H487.28ZM487.28 24.904V0.879994H511.148V24.904H487.28ZM545.701 121C539.461 121 534.105 118.764 529.633 114.292C525.265 109.82 523.081 104.516 523.081 98.38V63.748H590.941V59.536C590.941 56.104 590.941 54.388 590.941 54.388C590.941 54.388 589.225 54.388 585.793 54.388H523.081V30.52H592.189C598.429 30.52 603.733 32.756 608.101 37.228C612.573 41.7 614.809 47.004 614.809 53.14V121H545.701ZM552.097 97.132H590.941V84.652H546.949V91.984C546.949 95.416 546.949 97.132 546.949 97.132C546.949 97.132 548.665 97.132 552.097 97.132ZM649.752 121C643.616 121 638.312 118.764 633.84 114.292C629.368 109.82 627.132 104.516 627.132 98.38V0.723996H651.156V91.984C651.156 95.416 651.156 97.132 651.156 97.132C651.156 97.132 652.872 97.132 656.304 97.132H669.408V121H649.752ZM701.686 121C695.55 121 690.246 118.764 685.774 114.292C681.302 109.82 679.066 104.516 679.066 98.38V93.856H702.934V94.636C702.934 96.3 702.934 97.132 702.934 97.132C702.934 97.132 703.766 97.132 705.43 97.132H744.43C746.094 97.132 746.926 97.132 746.926 97.132C746.926 97.132 746.926 96.3 746.926 94.636V90.268C746.926 88.604 746.926 87.772 746.926 87.772C746.926 87.772 746.094 87.772 744.43 87.772H701.686C695.55 87.772 690.246 85.536 685.774 81.064C681.302 76.592 679.066 71.288 679.066 65.152V53.14C679.066 47.004 681.302 41.7 685.774 37.228C690.246 32.756 695.55 30.52 701.686 30.52H748.174C754.414 30.52 759.77 32.756 764.242 37.228C768.714 41.7 770.95 47.004 770.95 53.14V57.664H746.926V56.884C746.926 55.22 746.926 54.388 746.926 54.388C746.926 54.388 746.094 54.388 744.43 54.388H705.43C703.766 54.388 702.934 54.388 702.934 54.388C702.934 54.388 702.934 55.22 702.934 56.884V61.252C702.934 62.916 702.934 63.748 702.934 63.748C702.934 63.748 703.766 63.748 705.43 63.748H748.174C754.414 63.748 759.77 65.984 764.242 70.456C768.714 74.928 770.95 80.232 770.95 86.368V98.38C770.95 104.516 768.714 109.82 764.242 114.292C759.77 118.764 754.414 121 748.174 121H701.686Z" fill="#2B324D"/>
<path d="M875.909 121V33.016H831.917V8.68H944.237V33.016H900.245V121H875.909ZM974.088 121C967.952 121 962.648 118.764 958.176 114.292C953.704 109.82 951.468 104.516 951.468 98.38V53.14C951.468 47.004 953.704 41.7 958.176 37.228C962.648 32.756 967.952 30.52 974.088 30.52H1020.58C1026.82 30.52 1032.12 32.756 1036.49 37.228C1040.96 41.7 1043.2 47.004 1043.2 53.14V98.38C1043.2 104.516 1040.96 109.82 1036.49 114.292C1032.12 118.764 1026.82 121 1020.58 121H974.088ZM980.484 97.132H1014.18C1017.61 97.132 1019.33 97.132 1019.33 97.132C1019.33 97.132 1019.33 95.416 1019.33 91.984V59.536C1019.33 56.104 1019.33 54.388 1019.33 54.388C1019.33 54.388 1017.61 54.388 1014.18 54.388H980.484C977.052 54.388 975.336 54.388 975.336 54.388C975.336 54.388 975.336 56.104 975.336 59.536V91.984C975.336 95.416 975.336 97.132 975.336 97.132C975.336 97.132 977.052 97.132 980.484 97.132ZM1055.38 121V30.52H1124.49C1130.73 30.52 1136.03 32.756 1140.4 37.228C1144.87 41.7 1147.11 47.004 1147.11 53.14V121H1123.24V59.536C1123.24 56.104 1123.24 54.388 1123.24 54.388C1123.24 54.388 1121.52 54.388 1118.09 54.388H1084.39C1080.96 54.388 1079.25 54.388 1079.25 54.388C1079.25 54.388 1079.25 56.104 1079.25 59.536V121H1055.38ZM1163.69 121V30.52H1187.55V121H1163.69ZM1163.69 24.904V0.879994H1187.55V24.904H1163.69ZM1211.97 156.724V132.7H1260.49C1263.92 132.7 1265.63 132.7 1265.63 132.7C1265.63 132.7 1265.63 130.984 1265.63 127.552V121H1220.39C1214.15 121 1208.8 118.764 1204.33 114.292C1199.85 109.82 1197.62 104.516 1197.62 98.38V53.14C1197.62 47.004 1199.85 41.7 1204.33 37.228C1208.8 32.756 1214.15 30.52 1220.39 30.52H1266.88C1273.12 30.52 1278.43 32.756 1282.79 37.228C1287.27 41.7 1289.5 47.004 1289.5 53.14V134.104C1289.5 140.344 1287.27 145.648 1282.79 150.016C1278.43 154.488 1273.12 156.724 1266.88 156.724H1211.97ZM1226.63 97.132H1260.49C1263.92 97.132 1265.63 97.132 1265.63 97.132C1265.63 97.132 1265.63 95.416 1265.63 91.984V59.536C1265.63 56.104 1265.63 54.388 1265.63 54.388C1265.63 54.388 1263.92 54.388 1260.49 54.388H1226.63C1223.2 54.388 1221.49 54.388 1221.49 54.388C1221.49 54.388 1221.49 56.104 1221.49 59.536V91.984C1221.49 95.416 1221.49 97.132 1221.49 97.132C1221.49 97.132 1223.2 97.132 1226.63 97.132ZM1306.13 121V0.879994H1330V30.52H1375.24C1381.38 30.52 1386.68 32.756 1391.15 37.228C1395.63 41.7 1397.86 47.004 1397.86 53.14V121H1373.99V59.536C1373.99 56.104 1373.99 54.388 1373.99 54.388C1373.99 54.388 1372.28 54.388 1368.85 54.388H1335.15C1331.72 54.388 1330 54.388 1330 54.388C1330 54.388 1330 56.104 1330 59.536V121H1306.13ZM1432.96 121C1426.72 121 1421.36 118.764 1416.89 114.292C1412.42 109.82 1410.18 104.516 1410.18 98.38V3.68799H1434.05V30.52H1467.59V54.388H1434.05V91.984C1434.05 95.416 1434.05 97.132 1434.05 97.132C1434.05 97.132 1435.77 97.132 1439.2 97.132H1467.59V121H1432.96Z" fill="#485584"/>
</svg>
